<svg id="visual" viewBox="0 0 900 600" width="900" height="600" xmlns="http://www.w3.org/2000/svg" xmlns:xlink="http://www.w3.org/1999/xlink" version="1.1"><g stroke-width="1" stroke-linejoin="bevel"><path d="M467 322L429 392L502 397Z" fill="#15384f" stroke="#15384f"></path><path d="M476 507L566 425L502 397Z" fill="#1d4e6b" stroke="#1d4e6b"></path><path d="M502 397L606 309L467 322Z" fill="#297ea6" stroke="#297ea6"></path><path d="M467 322L364 305L429 392Z" fill="#15384f" stroke="#15384f"></path><path d="M404 534L476 507L429 392Z" fill="#277297" stroke="#277297"></path><path d="M429 392L476 507L502 397Z" fill="#00101c" stroke="#00101c"></path><path d="M566 425L606 309L502 397Z" fill="#246688" stroke="#246688"></path><path d="M467 322L474 216L364 305Z" fill="#246688" stroke="#246688"></path><path d="M606 309L474 216L467 322Z" fill="#081a28" stroke="#081a28"></path><path d="M364 305L311 417L429 392Z" fill="#277297" stroke="#277297"></path><path d="M318 496L404 534L429 392Z" fill="#1d4e6b" stroke="#1d4e6b"></path><path d="M302 217L288 287L364 305Z" fill="#246688" stroke="#246688"></path><path d="M364 305L288 287L311 417Z" fill="#00101c" stroke="#00101c"></path><path d="M311 417L318 496L429 392Z" fill="#246688" stroke="#246688"></path><path d="M206 505L318 496L311 417Z" fill="#1d4e6b" stroke="#1d4e6b"></path><path d="M474 216L415 175L364 305Z" fill="#1d4e6b" stroke="#1d4e6b"></path><path d="M476 507L631 488L566 425Z" fill="#19435d" stroke="#19435d"></path><path d="M566 425L697 320L606 309Z" fill="#081a28" stroke="#081a28"></path><path d="M566 600L631 488L476 507Z" fill="#112e42" stroke="#112e42"></path><path d="M674 236L605 212L606 309Z" fill="#297ea6" stroke="#297ea6"></path><path d="M606 309L605 212L474 216Z" fill="#297ea6" stroke="#297ea6"></path><path d="M496 65L391 87L415 175Z" fill="#00101c" stroke="#00101c"></path><path d="M415 175L302 217L364 305Z" fill="#081a28" stroke="#081a28"></path><path d="M386 600L493 600L404 534Z" fill="#00101c" stroke="#00101c"></path><path d="M404 534L493 600L476 507Z" fill="#15384f" stroke="#15384f"></path><path d="M735 366L697 320L566 425Z" fill="#1d4e6b" stroke="#1d4e6b"></path><path d="M697 320L674 236L606 309Z" fill="#1d4e6b" stroke="#1d4e6b"></path><path d="M318 496L386 600L404 534Z" fill="#112e42" stroke="#112e42"></path><path d="M493 600L566 600L476 507Z" fill="#00101c" stroke="#00101c"></path><path d="M631 488L735 366L566 425Z" fill="#1d4e6b" stroke="#1d4e6b"></path><path d="M697 320L839 293L674 236Z" fill="#0c2435" stroke="#0c2435"></path><path d="M717 487L735 366L631 488Z" fill="#00101c" stroke="#00101c"></path><path d="M235 184L206 298L288 287Z" fill="#205a7a" stroke="#205a7a"></path><path d="M288 287L206 298L311 417Z" fill="#0c2435" stroke="#0c2435"></path><path d="M728 600L717 487L631 488Z" fill="#277297" stroke="#277297"></path><path d="M415 175L335 122L302 217Z" fill="#112e42" stroke="#112e42"></path><path d="M302 217L235 184L288 287Z" fill="#1d4e6b" stroke="#1d4e6b"></path><path d="M391 87L335 122L415 175Z" fill="#1d4e6b" stroke="#1d4e6b"></path><path d="M206 505L300 600L318 496Z" fill="#112e42" stroke="#112e42"></path><path d="M318 496L300 600L386 600Z" fill="#297ea6" stroke="#297ea6"></path><path d="M206 298L185 430L311 417Z" fill="#1d4e6b" stroke="#1d4e6b"></path><path d="M496 65L415 175L474 216Z" fill="#246688" stroke="#246688"></path><path d="M496 65L474 216L560 69Z" fill="#00101c" stroke="#00101c"></path><path d="M185 430L206 505L311 417Z" fill="#081a28" stroke="#081a28"></path><path d="M335 122L235 184L302 217Z" fill="#0c2435" stroke="#0c2435"></path><path d="M187 74L235 184L335 122Z" fill="#246688" stroke="#246688"></path><path d="M560 69L474 216L605 212Z" fill="#277297" stroke="#277297"></path><path d="M664 72L560 69L605 212Z" fill="#0c2435" stroke="#0c2435"></path><path d="M717 487L788 396L735 366Z" fill="#246688" stroke="#246688"></path><path d="M735 366L839 293L697 320Z" fill="#297ea6" stroke="#297ea6"></path><path d="M674 236L664 72L605 212Z" fill="#112e42" stroke="#112e42"></path><path d="M566 600L728 600L631 488Z" fill="#1d4e6b" stroke="#1d4e6b"></path><path d="M717 487L837 460L788 396Z" fill="#112e42" stroke="#112e42"></path><path d="M830 163L664 72L674 236Z" fill="#246688" stroke="#246688"></path><path d="M560 69L503 0L496 65Z" fill="#00101c" stroke="#00101c"></path><path d="M88 230L110 332L206 298Z" fill="#00101c" stroke="#00101c"></path><path d="M206 298L110 332L185 430Z" fill="#277297" stroke="#277297"></path><path d="M185 430L92 492L206 505Z" fill="#246688" stroke="#246688"></path><path d="M110 332L105 398L185 430Z" fill="#297ea6" stroke="#297ea6"></path><path d="M605 0L503 0L560 69Z" fill="#297ea6" stroke="#297ea6"></path><path d="M496 65L380 0L391 87Z" fill="#297ea6" stroke="#297ea6"></path><path d="M391 87L380 0L335 122Z" fill="#1d4e6b" stroke="#1d4e6b"></path><path d="M503 0L380 0L496 65Z" fill="#1d4e6b" stroke="#1d4e6b"></path><path d="M235 184L88 230L206 298Z" fill="#297ea6" stroke="#297ea6"></path><path d="M900 368L839 293L788 396Z" fill="#081a28" stroke="#081a28"></path><path d="M788 396L839 293L735 366Z" fill="#246688" stroke="#246688"></path><path d="M805 600L837 460L717 487Z" fill="#297ea6" stroke="#297ea6"></path><path d="M139 600L163 600L206 505Z" fill="#205a7a" stroke="#205a7a"></path><path d="M206 505L163 600L300 600Z" fill="#081a28" stroke="#081a28"></path><path d="M664 72L605 0L560 69Z" fill="#246688" stroke="#246688"></path><path d="M0 461L92 492L105 398Z" fill="#19435d" stroke="#19435d"></path><path d="M105 398L92 492L185 430Z" fill="#081a28" stroke="#081a28"></path><path d="M92 492L139 600L206 505Z" fill="#112e42" stroke="#112e42"></path><path d="M187 74L88 230L235 184Z" fill="#112e42" stroke="#112e42"></path><path d="M110 332L0 404L105 398Z" fill="#00101c" stroke="#00101c"></path><path d="M273 0L187 74L335 122Z" fill="#15384f" stroke="#15384f"></path><path d="M728 600L805 600L717 487Z" fill="#0c2435" stroke="#0c2435"></path><path d="M380 0L273 0L335 122Z" fill="#15384f" stroke="#15384f"></path><path d="M839 293L830 163L674 236Z" fill="#277297" stroke="#277297"></path><path d="M664 72L703 0L605 0Z" fill="#0c2435" stroke="#0c2435"></path><path d="M837 460L900 368L788 396Z" fill="#15384f" stroke="#15384f"></path><path d="M839 293L900 162L830 163Z" fill="#1d4e6b" stroke="#1d4e6b"></path><path d="M900 517L900 368L837 460Z" fill="#297ea6" stroke="#297ea6"></path><path d="M900 368L900 326L839 293Z" fill="#277297" stroke="#277297"></path><path d="M824 72L703 0L664 72Z" fill="#297ea6" stroke="#297ea6"></path><path d="M273 0L224 0L187 74Z" fill="#277297" stroke="#277297"></path><path d="M187 74L114 61L88 230Z" fill="#112e42" stroke="#112e42"></path><path d="M805 600L900 517L837 460Z" fill="#0c2435" stroke="#0c2435"></path><path d="M900 97L824 72L830 163Z" fill="#246688" stroke="#246688"></path><path d="M830 163L824 72L664 72Z" fill="#205a7a" stroke="#205a7a"></path><path d="M109 0L114 61L187 74Z" fill="#19435d" stroke="#19435d"></path><path d="M0 313L0 404L110 332Z" fill="#15384f" stroke="#15384f"></path><path d="M92 492L0 600L139 600Z" fill="#297ea6" stroke="#297ea6"></path><path d="M0 313L110 332L88 230Z" fill="#297ea6" stroke="#297ea6"></path><path d="M0 184L0 313L88 230Z" fill="#112e42" stroke="#112e42"></path><path d="M0 404L0 461L105 398Z" fill="#112e42" stroke="#112e42"></path><path d="M900 326L900 162L839 293Z" fill="#00101c" stroke="#00101c"></path><path d="M805 600L900 600L900 517Z" fill="#112e42" stroke="#112e42"></path><path d="M0 111L0 184L88 230Z" fill="#0c2435" stroke="#0c2435"></path><path d="M900 162L900 97L830 163Z" fill="#1d4e6b" stroke="#1d4e6b"></path><path d="M824 72L831 0L703 0Z" fill="#1d4e6b" stroke="#1d4e6b"></path><path d="M224 0L109 0L187 74Z" fill="#205a7a" stroke="#205a7a"></path><path d="M114 61L0 111L88 230Z" fill="#246688" stroke="#246688"></path><path d="M900 0L831 0L824 72Z" fill="#00101c" stroke="#00101c"></path><path d="M0 461L0 600L92 492Z" fill="#081a28" stroke="#081a28"></path><path d="M0 0L0 111L114 61Z" fill="#00101c" stroke="#00101c"></path><path d="M900 97L900 0L824 72Z" fill="#19435d" stroke="#19435d"></path><path d="M109 0L0 0L114 61Z" fill="#277297" stroke="#277297"></path></g></svg>