<svg id="visual" viewBox="0 0 900 600" width="900" height="600" xmlns="http://www.w3.org/2000/svg" xmlns:xlink="http://www.w3.org/1999/xlink" version="1.1"><rect x="0" y="0" width="900" height="600" fill="#000000"></rect><path d="M0 386L21.5 384C43 382 86 378 128.8 379.8C171.7 381.7 214.3 389.3 257.2 398.7C300 408 343 419 385.8 417.8C428.7 416.7 471.3 403.3 514.2 397C557 390.7 600 391.3 642.8 385.3C685.7 379.3 728.3 366.7 771.2 375.2C814 383.7 857 413.3 878.5 428.2L900 443L900 601L878.5 601C857 601 814 601 771.2 601C728.3 601 685.7 601 642.8 601C600 601 557 601 514.2 601C471.3 601 428.7 601 385.8 601C343 601 300 601 257.2 601C214.3 601 171.7 601 128.8 601C86 601 43 601 21.5 601L0 601Z" fill="#6924c7"></path><path d="M0 395L21.5 403.8C43 412.7 86 430.3 128.8 438.8C171.7 447.3 214.3 446.7 257.2 443.8C300 441 343 436 385.8 434C428.7 432 471.3 433 514.2 439.8C557 446.7 600 459.3 642.8 465.5C685.7 471.7 728.3 471.3 771.2 461.2C814 451 857 431 878.5 421L900 411L900 601L878.5 601C857 601 814 601 771.2 601C728.3 601 685.7 601 642.8 601C600 601 557 601 514.2 601C471.3 601 428.7 601 385.8 601C343 601 300 601 257.2 601C214.3 601 171.7 601 128.8 601C86 601 43 601 21.5 601L0 601Z" fill="#b700aa"></path><path d="M0 464L21.5 469.7C43 475.3 86 486.7 128.8 483.8C171.7 481 214.3 464 257.2 459.7C300 455.3 343 463.7 385.8 474C428.7 484.3 471.3 496.7 514.2 493.2C557 489.7 600 470.3 642.8 459.5C685.7 448.7 728.3 446.3 771.2 450C814 453.7 857 463.3 878.5 468.2L900 473L900 601L878.5 601C857 601 814 601 771.2 601C728.3 601 685.7 601 642.8 601C600 601 557 601 514.2 601C471.3 601 428.7 601 385.8 601C343 601 300 601 257.2 601C214.3 601 171.7 601 128.8 601C86 601 43 601 21.5 601L0 601Z" fill="#e1098b"></path><path d="M0 499L21.5 499.5C43 500 86 501 128.8 501.3C171.7 501.7 214.3 501.3 257.2 499.3C300 497.3 343 493.7 385.8 493.5C428.7 493.3 471.3 496.7 514.2 502.2C557 507.7 600 515.3 642.8 521.3C685.7 527.3 728.3 531.7 771.2 528.8C814 526 857 516 878.5 511L900 506L900 601L878.5 601C857 601 814 601 771.2 601C728.3 601 685.7 601 642.8 601C600 601 557 601 514.2 601C471.3 601 428.7 601 385.8 601C343 601 300 601 257.2 601C214.3 601 171.7 601 128.8 601C86 601 43 601 21.5 601L0 601Z" fill="#f74371"></path><path d="M0 552L21.5 555.5C43 559 86 566 128.8 567.5C171.7 569 214.3 565 257.2 558.8C300 552.7 343 544.3 385.8 546.5C428.7 548.7 471.3 561.3 514.2 561.3C557 561.3 600 548.7 642.8 547C685.7 545.3 728.3 554.7 771.2 554.7C814 554.7 857 545.3 878.5 540.7L900 536L900 601L878.5 601C857 601 814 601 771.2 601C728.3 601 685.7 601 642.8 601C600 601 557 601 514.2 601C471.3 601 428.7 601 385.8 601C343 601 300 601 257.2 601C214.3 601 171.7 601 128.8 601C86 601 43 601 21.5 601L0 601Z" fill="#ff6f61"></path></svg>